# xmcd
#
# Track frame offsets: 
#        150
#        12422
#        23477
#        36153
#        46827
#        57708
#        69651
#        82067
#        96935
#        108914
#        121225
#        133301
#        146164
#        159432
#        169300
#        182790
#
# Disc length: 2576 seconds
#
# Revision: 1
# Processed by: cddbd v1.5.2PL0 Copyright (c) Steve Scherf et al.
# Submitted via: ExactAudioCopy v1.3
#
DISCID=e40a0e10
DTITLE=Various Artist - Bluegrass and Banjo CD1
DYEAR=2009
DGENRE=Bluegrass
TTITLE0=Flatt and Scruggs - Foggy mountain Breakdown
TTITLE1=The Stanley Brothers - Molly and tenbrooks
TTITLE2=Sonny Osborne - The old home town
TTITLE3=The Lonesome Pine Fiddlers - Nobody cares (not even you)
TTITLE4=Mac Wiseman - Going to see my baby
TTITLE5=Wilma Lee and Stoney Cooper - This world can't stand long
TTITLE6=Bill Monroe - Uncle Pen
TTITLE7=Jimmy Martin and The Osborne Brothers - Across the sea blues
TTITLE8=Flatt and Scruggs - My cabin in Caroline
TTITLE9=The Lonesome Pine Fiddlers - Pain in my Heart
TTITLE10=Sonny Osborne - I'm gonna leave you
TTITLE11=Mac Wiseman - I wonder how the old folks are at home
TTITLE12=The Stanley Brothers - Little glass of wine
TTITLE13=The Lonesome Pine Fiddlers - You broke your promise
TTITLE14=Brown's Ferry Four - Will the circle be unbroken
TTITLE15=Bill Monroe - Bluegrass breakdown
EXTD=
EXTT0=
EXTT1=
EXTT2=
EXTT3=
EXTT4=
EXTT5=
EXTT6=
EXTT7=
EXTT8=
EXTT9=
EXTT10=
EXTT11=
EXTT12=
EXTT13=
EXTT14=
EXTT15=
PLAYORDER=
